<?xml version="1.0" encoding="iso-8859-1"?>
<!-- Generator: Adobe Illustrator 19.0.0, SVG Export Plug-In . SVG Version: 6.00 Build 0)  -->
<svg version="1.1" id="Capa_1" xmlns="http://www.w3.org/2000/svg" xmlns:xlink="http://www.w3.org/1999/xlink" x="0px" y="0px"
	 viewBox="0 0 512 512" style="enable-background:new 0 0 512 512;" xml:space="preserve">
<path style="fill:#FDBF00;" d="M383.2,123.699l-46.5,185.7H175.3l-46.5-185.7l44.399-30.3l20.7,19.801L222.7,73.299h66.6
	l28.8,39.901l20.7-19.801c6-5.4,15.601-5.4,21.299,0.601L383.2,123.699z"/>
<path style="fill:#FF9F00;" d="M336.7,309.399H256v-236.1h33.3l28.8,39.901l20.7-19.801c6-5.4,15.601-5.4,21.299,0.601l23.101,29.7
	L336.7,309.399z"/>
<path style="fill:#00CC71;" d="M510.801,372.999C499.401,442,389.2,496,256,496S12.599,442,1.199,372.999H510.801z"/>
<path style="fill:#00AB5E;" d="M510.801,372.999C499.401,442,389.2,496,256,496V372.999H510.801z"/>
<path style="fill:#00EE84;" d="M512,361c0,3.9-0.601,8.099-1.199,11.999L274.3,431.8c-6,1.5-12.299,2.401-18.3,2.401
	s-12.299-0.901-18.3-2.401L1.199,372.999C0.601,369.099,0,364.9,0,361c0-6.301,1.199-12.601,2.701-18.6
	C19.799,276.7,127,226,256,226s236.201,50.7,253.299,116.4C510.801,348.399,512,354.699,512,361z"/>
<path style="fill:#00DD7B;" d="M512,361c0,3.9-0.601,8.099-1.199,11.999L274.3,431.8c-6,1.5-12.299,2.401-18.3,2.401V226
	c129,0,236.201,50.7,253.299,116.4C510.801,348.399,512,354.699,512,361z"/>
<path style="fill:#00CC71;" d="M136,316c-41.353,0-75-33.647-75-75s33.647-75,75-75s75,33.647,75,75S177.353,316,136,316z"/>
<path style="fill:#ECECF1;" d="M136,196c-24.814,0-45,20.186-45,45s20.186,45,45,45s45-20.186,45-45S160.814,196,136,196z"/>
<path style="fill:#00AB5E;" d="M376,316c-41.353,0-75-33.647-75-75s33.647-75,75-75s75,33.647,75,75S417.353,316,376,316z"/>
<path style="fill:#E2E2E7;" d="M376,196c-24.814,0-45,20.186-45,45s20.186,45,45,45s45-20.186,45-45S400.814,196,376,196z"/>
<circle style="fill:#5A5A5A;" cx="135.97" cy="241" r="15"/>
<circle style="fill:#444444;" cx="375.97" cy="241" r="15"/>
<circle style="fill:#00CC71;" cx="225.97" cy="331" r="15"/>
<circle style="fill:#00AB5E;" cx="285.97" cy="331" r="15"/>
<g>
	<path style="fill:#FFD400;" d="M256,16c-24.901,0-45,20.099-45,45c0,24.899,20.099,45,45,45s45-20.101,45-45
		C301,36.099,280.901,16,256,16z"/>
	<path style="fill:#FFD400;" d="M136,136c-24.814,0-45-20.186-45-45s20.186-45,45-45s45,20.186,45,45S160.814,136,136,136z"/>
</g>
<g>
	<path style="fill:#FDBF00;" d="M376,136c-24.814,0-45-20.186-45-45s20.186-45,45-45s45,20.186,45,45S400.814,136,376,136z"/>
	<path style="fill:#FDBF00;" d="M256,106V16c24.901,0,45,20.099,45,45C301,85.899,280.901,106,256,106z"/>
</g>
<g>
</g>
<g>
</g>
<g>
</g>
<g>
</g>
<g>
</g>
<g>
</g>
<g>
</g>
<g>
</g>
<g>
</g>
<g>
</g>
<g>
</g>
<g>
</g>
<g>
</g>
<g>
</g>
<g>
</g>
</svg>
