<?xml version="1.0" encoding="iso-8859-1"?>
<!-- Generator: Adobe Illustrator 19.0.0, SVG Export Plug-In . SVG Version: 6.00 Build 0)  -->
<svg version="1.1" id="Layer_1" xmlns="http://www.w3.org/2000/svg" xmlns:xlink="http://www.w3.org/1999/xlink" x="0px" y="0px"
	 viewBox="0 0 512 512" style="enable-background:new 0 0 512 512;" xml:space="preserve">
<circle style="fill:#FFDBA9;" cx="256" cy="256" r="256"/>
<path style="fill:#FFC473;" d="M512,256c0-27.876-4.472-54.704-12.71-79.826l-98.588-98.587
	c-66.043,0-103.726,56.559-125.228,121.104l-85.215-85.124c-20.311-21.99-46.128-35.98-78.961-35.98c0,0,3.098,2.125,8.027,7.65
	c-0.129,0-0.255-0.007-0.385-0.007c0,0,0.418,0.286,1.19,0.921c13.907,16.001,40.839,57.645,55.614,150.732l-29.429-29.364
	c-22.838-24.481-52.848-41.456-92.168-41.456c0,0,3.239,2.356,8.328,7.65c-0.229-0.001-0.456-0.007-0.686-0.007
	c0,0,1.1,0.799,3.023,2.51c19.91,21.92,60.748,82.219,60.748,208.118l127.631,127.631c0.936,0.01,1.869,0.035,2.808,0.035
	C397.385,512,512,397.385,512,256z"/>
<path style="fill:#00A753;" d="M457.852,166.063c0,0-71.413,51.798-71.413,218.27h-90.906
	C295.533,384.333,316.852,166.063,457.852,166.063z"/>
<path style="fill:#00C379;" d="M54.148,166.063c0,0,71.413,51.798,71.413,218.27h90.906
	C216.467,384.333,195.148,166.063,54.148,166.063z"/>
<path style="fill:#008C49;" d="M400.702,77.587c0,0-74.765,51.148-74.765,306.747h-79.038
	C246.899,384.333,246.899,77.587,400.702,77.587z"/>
<path style="fill:#00A753;" d="M111.298,77.587c0,0,74.765,51.148,74.765,306.747h79.038
	C265.101,384.333,265.101,77.587,111.298,77.587z"/>
<path style="fill:#8A6746;" d="M256,512c97.212,0,181.768-54.185,225.115-134H30.885C74.232,457.815,158.788,512,256,512z"/>
<path style="fill:#715539;" d="M481.12,378C437.77,457.82,353.21,512,256,512V378H481.12z"/>
<g>
</g>
<g>
</g>
<g>
</g>
<g>
</g>
<g>
</g>
<g>
</g>
<g>
</g>
<g>
</g>
<g>
</g>
<g>
</g>
<g>
</g>
<g>
</g>
<g>
</g>
<g>
</g>
<g>
</g>
</svg>
