<?xml version="1.0" encoding="iso-8859-1"?>
<!-- Generator: Adobe Illustrator 19.0.0, SVG Export Plug-In . SVG Version: 6.00 Build 0)  -->
<svg version="1.1" id="Capa_1" xmlns="http://www.w3.org/2000/svg" xmlns:xlink="http://www.w3.org/1999/xlink" x="0px" y="0px"
	 viewBox="0 0 511.999 511.999" style="enable-background:new 0 0 511.999 511.999;" xml:space="preserve">
<path style="fill:#FFD664;" d="M261.006,31.352L174.902,0.865c-7.808-2.766-16.382,1.323-19.146,9.132
	c-2.765,7.809,1.324,16.381,9.133,19.145l28.49,10.087c-92.722,26.524-163.38,112.192-163.38,216.762
	c0,96.099,60.531,179.943,148.703,211.962c7.779,2.826,16.389-1.186,19.219-8.978c2.828-7.786-1.192-16.391-8.979-19.218
	c-76.139-27.65-128.943-100.092-128.943-183.766c0-91.409,63.225-168.356,148.343-189.645l-31.58,26.87
	c-6.309,5.368-7.072,14.834-1.703,21.143c5.367,6.308,14.834,7.072,21.145,1.703l69.517-59.148
	C274.615,49.346,271.744,35.153,261.006,31.352z"/>
<path style="fill:#A4FF89;" d="M177.838,306.75c-20.414-11.785-32.495-33.754-31.527-57.334c0.202-4.917,2.803-9.423,6.961-12.056
	c19.938-12.626,45.005-13.15,65.418-1.364c20.414,11.785,32.495,33.754,31.527,57.333c-0.202,4.917-2.803,9.422-6.961,12.056
	C223.4,317.962,198.333,318.583,177.838,306.75z"/>
<path style="fill:#59F486;" d="M235.207,366.861c-8.284,0-15-6.715-15-14.999v-113.36c0-8.284,6.716-14.999,15-14.999
	s15,6.715,15,14.999v113.359C250.207,360.145,243.492,366.861,235.207,366.861z"/>
<path style="fill:#40DE7C;" d="M235.207,223.503V366.86c8.284,0,15-6.715,15-14.999V238.502
	C250.207,230.218,243.492,223.503,235.207,223.503z"/>
<path style="fill:#59F486;" d="M227.182,251.173c-4.158-2.633-6.76-7.139-6.961-12.057c-1.381-33.684,15.875-65.066,45.033-81.901
	c29.162-16.834,64.969-16.086,93.45,1.953c4.158,2.634,6.759,7.139,6.961,12.056c1.382,33.685-15.874,65.067-45.033,81.901
	C291.513,269.935,255.702,269.237,227.182,251.173z"/>
<path style="fill:#FFBB54;" d="M481.999,255.991c0-96.099-60.531-179.943-148.703-211.962c-7.787-2.83-16.391,1.191-19.219,8.978
	c-2.828,7.786,1.192,16.391,8.979,19.218c76.139,27.651,128.943,100.093,128.943,183.766c0,91.409-63.225,168.356-148.343,189.645
	l31.58-26.87c6.309-5.368,7.072-14.834,1.703-21.143c-5.368-6.309-14.835-7.071-21.145-1.703l-69.517,59.148
	c-8.679,7.384-6.297,21.664,4.714,25.562c93.723,33.184,87.482,31.351,91.111,31.351c6.175,0,11.961-3.844,14.14-9.997
	c2.765-7.809-1.324-16.381-9.133-19.145l-28.49-10.087C411.341,446.229,481.999,360.562,481.999,255.991z"/>
<g>
</g>
<g>
</g>
<g>
</g>
<g>
</g>
<g>
</g>
<g>
</g>
<g>
</g>
<g>
</g>
<g>
</g>
<g>
</g>
<g>
</g>
<g>
</g>
<g>
</g>
<g>
</g>
<g>
</g>
</svg>
