<?xml version="1.0" encoding="iso-8859-1"?>
<!-- Generator: Adobe Illustrator 19.0.0, SVG Export Plug-In . SVG Version: 6.00 Build 0)  -->
<svg version="1.1" id="Layer_1" xmlns="http://www.w3.org/2000/svg" xmlns:xlink="http://www.w3.org/1999/xlink" x="0px" y="0px"
	 viewBox="0 0 512 512" style="enable-background:new 0 0 512 512;" xml:space="preserve">
<path style="fill:#E6C8A0;" d="M494.345,172.138H361.931l-97.103,52.966H158.897H52.966l-38.589,15.435
	c-3.351,1.342-5.549,4.587-5.549,8.196v99.955h494.345V180.966C503.172,176.09,499.221,172.138,494.345,172.138z"/>
<path style="fill:#D2B48C;" d="M264.989,242.759H51.155L8.828,260.899v19.207l45.949-19.692h209.538
	c7.385,0,14.653-1.853,21.135-5.389l87.223-47.576h130.499v-17.655H368.845l-91.175,49.732
	C273.78,241.647,269.42,242.759,264.989,242.759z"/>
<rect x="52.966" y="198.621" style="fill:#FFE1B3;" width="105.931" height="141.241"/>
<g>
	<rect x="52.966" y="198.621" style="fill:#E6C8A0;" width="105.931" height="26.483"/>
	<rect x="52.966" y="269.241" style="fill:#E6C8A0;" width="105.931" height="26.483"/>
</g>
<g>
	<path style="fill:#FFEBBE;" d="M158.897,207.448H52.966c-4.875,0-8.828-3.953-8.828-8.828v-8.828c0-4.875,3.953-8.828,8.828-8.828
		h105.931c4.875,0,8.828,3.953,8.828,8.828v8.828C167.724,203.496,163.772,207.448,158.897,207.448z"/>
	<path style="fill:#FFEBBE;" d="M158.897,278.069H52.966c-4.875,0-8.828-3.953-8.828-8.828l0,0c0-4.875,3.953-8.828,8.828-8.828
		h105.931c4.875,0,8.828,3.953,8.828,8.828l0,0C167.724,274.118,163.772,278.069,158.897,278.069z"/>
</g>
<g>
	<path style="fill:#E6C8A0;" d="M105.931,251.586c-4.879,0-8.828-3.948-8.828-8.828v-8.828c0-4.879,3.948-8.828,8.828-8.828
		c4.879,0,8.828,3.948,8.828,8.828v8.828C114.759,247.638,110.81,251.586,105.931,251.586z"/>
	<path style="fill:#E6C8A0;" d="M132.414,251.586c-4.879,0-8.828-3.948-8.828-8.828v-8.828c0-4.879,3.948-8.828,8.828-8.828
		c4.879,0,8.828,3.948,8.828,8.828v8.828C141.241,247.638,137.293,251.586,132.414,251.586z"/>
	<path style="fill:#E6C8A0;" d="M79.448,251.586c-4.879,0-8.828-3.948-8.828-8.828v-8.828c0-4.879,3.948-8.828,8.828-8.828
		c4.879,0,8.828,3.948,8.828,8.828v8.828C88.276,247.638,84.328,251.586,79.448,251.586z"/>
</g>
<rect x="361.931" y="145.655" style="fill:#FFE1B3;" width="105.931" height="141.241"/>
<g>
	<rect x="361.931" y="145.655" style="fill:#E6C8A0;" width="105.931" height="26.483"/>
	<rect x="361.931" y="216.276" style="fill:#E6C8A0;" width="105.931" height="26.483"/>
</g>
<path style="fill:#FFEBBE;" d="M467.862,154.483H361.931c-4.875,0-8.828-3.953-8.828-8.828v-8.828c0-4.875,3.953-8.828,8.828-8.828
	h105.931c4.875,0,8.828,3.953,8.828,8.828v8.828C476.69,150.53,472.738,154.483,467.862,154.483z"/>
<g>
	<path style="fill:#E6C8A0;" d="M414.897,198.621c-4.879,0-8.828-3.948-8.828-8.828v-8.828c0-4.879,3.948-8.828,8.828-8.828
		c4.879,0,8.828,3.948,8.828,8.828v8.828C423.724,194.673,419.776,198.621,414.897,198.621z"/>
	<path style="fill:#E6C8A0;" d="M441.379,198.621c-4.879,0-8.828-3.948-8.828-8.828v-8.828c0-4.879,3.948-8.828,8.828-8.828
		c4.879,0,8.828,3.948,8.828,8.828v8.828C450.207,194.673,446.259,198.621,441.379,198.621z"/>
	<path style="fill:#E6C8A0;" d="M388.414,198.621c-4.879,0-8.828-3.948-8.828-8.828v-8.828c0-4.879,3.948-8.828,8.828-8.828
		s8.828,3.948,8.828,8.828v8.828C397.241,194.673,393.293,198.621,388.414,198.621z"/>
</g>
<path style="fill:#FFEBBE;" d="M467.862,225.103H361.931c-4.875,0-8.828-3.953-8.828-8.828l0,0c0-4.875,3.953-8.828,8.828-8.828
	h105.931c4.875,0,8.828,3.953,8.828,8.828l0,0C476.69,221.151,472.738,225.103,467.862,225.103z"/>
<polygon style="fill:#8CE16E;" points="503.172,233.931 441.379,233.931 282.483,286.897 158.897,286.897 8.828,339.862 
	8.828,366.345 503.172,366.345 "/>
<polygon style="fill:#9BF57D;" points="203.034,366.345 238.345,366.345 186.422,286.897 166.681,286.897 "/>
<path style="fill:#7DC86E;" d="M503.172,366.345H490.47c-4.051,0-7.582-2.756-8.564-6.687l-31.431-125.727h-9.096l-8.395,2.798
	l9.274,37.116l-73.035,89.262c-1.676,2.049-4.184,3.237-6.833,3.237h-49.143c-3.861,0-7.274-2.509-8.426-6.195l-22.891-73.253
	h-17.103v70.621c0,4.875-3.953,8.828-8.828,8.828h-83.591c-4.051,0-7.582-2.756-8.564-6.687l-17.117-68.467l-94.548,33.369
	l-11.916,35.748c-1.202,3.605-4.575,6.036-8.374,6.036H8.828c-4.879,0-8.828,3.948-8.828,8.828C0,380.052,3.948,384,8.828,384
	h494.345c4.879,0,8.828-3.948,8.828-8.828C512,370.293,508.052,366.345,503.172,366.345z"/>
<path style="fill:#9BF57D;" d="M450.475,233.931h17.387l35.31,88.276v44.138H490.47c-4.051,0-7.582-2.756-8.564-6.687
	L450.475,233.931z"/>
<g>
</g>
<g>
</g>
<g>
</g>
<g>
</g>
<g>
</g>
<g>
</g>
<g>
</g>
<g>
</g>
<g>
</g>
<g>
</g>
<g>
</g>
<g>
</g>
<g>
</g>
<g>
</g>
<g>
</g>
</svg>
